<svg width="33" height="33" viewBox="0 0 33 33" fill="none" xmlns="http://www.w3.org/2000/svg">
<path d="M2.22964 20.6741C2.11137 20.6741 1.99794 20.6271 1.91431 20.5435C1.83067 20.4599 1.78369 20.3464 1.78369 20.2282V18.9037C1.78369 18.7854 1.83067 18.672 1.91431 18.5884C1.99794 18.5047 2.11137 18.4578 2.22964 18.4578C2.34791 18.4578 2.46134 18.5047 2.54497 18.5884C2.6286 18.672 2.67558 18.7854 2.67558 18.9037V20.2282C2.67558 20.3464 2.6286 20.4599 2.54497 20.5435C2.46134 20.6271 2.34791 20.6741 2.22964 20.6741Z" fill="white"/>
<path d="M29.4323 32.1081H3.56748C3.09439 32.1081 2.64067 31.9201 2.30615 31.5856C1.97163 31.2511 1.78369 30.7974 1.78369 30.3243V23.3497C1.78369 23.2314 1.83067 23.118 1.91431 23.0344C1.99794 22.9507 2.11137 22.9037 2.22964 22.9037C2.34791 22.9037 2.46134 22.9507 2.54497 23.0344C2.6286 23.118 2.67558 23.2314 2.67558 23.3497V30.3243C2.67558 30.5608 2.76955 30.7877 2.93681 30.9549C3.10407 31.1222 3.33093 31.2162 3.56748 31.2162H29.4323C29.6689 31.2162 29.8957 31.1222 30.063 30.9549C30.2303 30.7877 30.3242 30.5608 30.3242 30.3243V9.43617C30.3242 9.37695 30.3123 9.31833 30.2893 9.26373C30.2664 9.20914 30.2327 9.15967 30.1904 9.11821L22.9898 1.91752C22.9483 1.87523 22.8988 1.84161 22.8442 1.81864C22.7896 1.79567 22.731 1.78381 22.6718 1.78374H3.56748C3.33093 1.78374 3.10407 1.87771 2.93681 2.04497C2.76955 2.21223 2.67558 2.43909 2.67558 2.67563V11.3627C2.67558 11.4809 2.6286 11.5944 2.54497 11.678C2.46134 11.7616 2.34791 11.8086 2.22964 11.8086C2.11137 11.8086 1.99794 11.7616 1.91431 11.678C1.83067 11.5944 1.78369 11.4809 1.78369 11.3627V2.67563C1.78369 2.20254 1.97163 1.74883 2.30615 1.41431C2.64067 1.07978 3.09439 0.891849 3.56748 0.891849H22.6718C22.8481 0.89145 23.0227 0.92605 23.1855 0.993644C23.3484 1.06124 23.4961 1.16048 23.6203 1.28562L30.8223 8.48765C30.9475 8.61184 31.0467 8.75963 31.1143 8.92245C31.1819 9.08527 31.2165 9.25988 31.2161 9.43617V30.3243C31.2161 30.7974 31.0282 31.2511 30.6937 31.5856C30.3591 31.9201 29.9054 32.1081 29.4323 32.1081Z" fill="white"/>
<path d="M2.22964 16.2279C2.11137 16.2279 1.99794 16.1809 1.91431 16.0973C1.83067 16.0137 1.78369 15.9002 1.78369 15.782V14.4843C1.78369 14.366 1.83067 14.2526 1.91431 14.1689C1.99794 14.0853 2.11137 14.0383 2.22964 14.0383C2.34791 14.0383 2.46134 14.0853 2.54497 14.1689C2.6286 14.2526 2.67558 14.366 2.67558 14.4843V15.782C2.67558 15.9002 2.6286 16.0137 2.54497 16.0973C2.46134 16.1809 2.34791 16.2279 2.22964 16.2279Z" fill="white"/>
<path d="M20.5135 6.68914H7.30233C7.18406 6.68914 7.07063 6.64216 6.987 6.55853C6.90337 6.4749 6.85638 6.36147 6.85638 6.2432V1.33779C6.85638 1.21952 6.90337 1.10609 6.987 1.02246C7.07063 0.938829 7.18406 0.891846 7.30233 0.891846H20.5135C20.6318 0.891846 20.7452 0.938829 20.8288 1.02246C20.9124 1.10609 20.9594 1.21952 20.9594 1.33779V6.2432C20.9594 6.36147 20.9124 6.4749 20.8288 6.55853C20.7452 6.64216 20.6318 6.68914 20.5135 6.68914ZM7.74828 5.79725H20.0675V1.78374H7.74828V5.79725Z" fill="white"/>
<path d="M17.8378 4.83103C17.7195 4.83103 17.6061 4.78405 17.5225 4.70042C17.4388 4.61679 17.3918 4.50336 17.3918 4.38508V3.19619C17.3918 3.07792 17.4388 2.96449 17.5225 2.88086C17.6061 2.79723 17.7195 2.75024 17.8378 2.75024C17.9561 2.75024 18.0695 2.79723 18.1531 2.88086C18.2368 2.96449 18.2837 3.07792 18.2837 3.19619V4.38508C18.2837 4.50336 18.2368 4.61679 18.1531 4.70042C18.0695 4.78405 17.9561 4.83103 17.8378 4.83103Z" fill="white"/>
<path d="M26.5339 32.108H6.46633C6.34806 32.108 6.23463 32.061 6.151 31.9774C6.06737 31.8938 6.02039 31.7803 6.02039 31.6621V17.3918C6.02039 17.037 6.16134 16.6967 6.41223 16.4458C6.66312 16.1949 7.00341 16.054 7.35822 16.054H25.642C25.9968 16.054 26.3371 16.1949 26.588 16.4458C26.8389 16.6967 26.9798 17.037 26.9798 17.3918V31.6621C26.9798 31.7803 26.9329 31.8938 26.8492 31.9774C26.7656 32.061 26.6522 32.108 26.5339 32.108ZM6.91228 31.2161H26.088V17.3918C26.088 17.2735 26.041 17.1601 25.9573 17.0765C25.8737 16.9928 25.7603 16.9458 25.642 16.9458H7.35822C7.23995 16.9458 7.12652 16.9928 7.04289 17.0765C6.95926 17.1601 6.91228 17.2735 6.91228 17.3918V31.2161Z" fill="white"/>
<path d="M22.9661 20.6807H10.0337C9.91544 20.6807 9.80201 20.6337 9.71838 20.5501C9.63475 20.4665 9.58777 20.353 9.58777 20.2348C9.58777 20.1165 9.63475 20.0031 9.71838 19.9194C9.80201 19.8358 9.91544 19.7888 10.0337 19.7888H22.9661C23.0844 19.7888 23.1978 19.8358 23.2815 19.9194C23.3651 20.0031 23.4121 20.1165 23.4121 20.2348C23.4121 20.353 23.3651 20.4665 23.2815 20.5501C23.1978 20.6337 23.0844 20.6807 22.9661 20.6807Z" fill="white"/>
<path d="M22.9661 24.5272H10.0337C9.91544 24.5272 9.80201 24.4802 9.71838 24.3965C9.63475 24.3129 9.58777 24.1995 9.58777 24.0812C9.58777 23.9629 9.63475 23.8495 9.71838 23.7659C9.80201 23.6822 9.91544 23.6353 10.0337 23.6353H22.9661C23.0844 23.6353 23.1978 23.6822 23.2815 23.7659C23.3651 23.8495 23.4121 23.9629 23.4121 24.0812C23.4121 24.1995 23.3651 24.3129 23.2815 24.3965C23.1978 24.4802 23.0844 24.5272 22.9661 24.5272Z" fill="white"/>
<path d="M22.9661 28.3733H10.0337C9.91544 28.3733 9.80201 28.3264 9.71838 28.2427C9.63475 28.1591 9.58777 28.0457 9.58777 27.9274C9.58777 27.8091 9.63475 27.6957 9.71838 27.6121C9.80201 27.5284 9.91544 27.4814 10.0337 27.4814H22.9661C23.0844 27.4814 23.1978 27.5284 23.2815 27.6121C23.3651 27.6957 23.4121 27.8091 23.4121 27.9274C23.4121 28.0457 23.3651 28.1591 23.2815 28.2427C23.1978 28.3264 23.0844 28.3733 22.9661 28.3733Z" fill="white"/>
</svg>
