<svg width="36" height="36" viewBox="0 0 36 36" fill="none" xmlns="http://www.w3.org/2000/svg">
<g clip-path="url(#clip0)">
<path d="M32.9406 9.27549H32.6319C32.4512 7.72697 31.2051 6.49924 29.6478 6.349C29.469 4.67963 28.0528 3.375 26.337 3.375H5.08723C2.24341 3.375 -0.0703125 5.68872 -0.0703125 8.53227V23.4317C-0.0703125 25.1596 1.25189 26.5837 2.9372 26.7465C3.11408 28.3981 4.50248 29.6917 6.19355 29.7189C6.19795 30.0119 6.24382 30.2948 6.32704 30.5618C6.70579 31.7777 7.84233 32.663 9.18129 32.663H32.9406C34.5889 32.663 35.9298 31.3221 35.9298 29.6741V12.2646C35.9298 10.6164 34.5889 9.27549 32.9406 9.27549ZM34.5235 12.2646V23.7775L31.4649 21.467C30.6291 20.8359 29.4989 20.826 28.6524 21.4426L24.7833 24.2617L17.4049 16.6547C16.5259 15.7484 15.0958 15.6926 14.149 16.5281L7.59871 22.3072V12.2646C7.59871 11.3917 8.3087 10.6817 9.18129 10.6817H32.9406C33.8135 10.6817 34.5235 11.3917 34.5235 12.2646ZM34.5235 29.6738C34.5235 30.5467 33.8135 31.2567 32.9409 31.2567H9.18129C8.4724 31.2567 7.87062 30.7879 7.67012 30.1441C7.6237 29.9955 7.59871 29.8375 7.59871 29.6741V24.1823L15.0796 17.5825C15.4622 17.2447 16.0401 17.2672 16.3955 17.6336L19.7254 21.0669C19.7254 21.0671 19.7254 21.0671 19.7257 21.0671L26.3535 27.9004C26.4914 28.0426 26.6746 28.1141 26.8583 28.1141C27.0347 28.1141 27.2113 28.0481 27.3478 27.9158C27.6263 27.6452 27.6331 27.2003 27.3629 26.9215L25.7721 25.2812L29.4805 22.5794C29.8227 22.33 30.2795 22.3339 30.6173 22.589L34.5235 25.5397V29.6738ZM4.32423 26.3898V9.78828C4.32423 9.71769 4.3278 9.64766 4.33494 9.57899C4.43986 8.5471 5.3141 7.73933 6.37318 7.73933H14.9738C15.3622 7.73933 15.677 7.42457 15.677 7.0362C15.677 6.64783 15.3622 6.33307 14.9738 6.33307H6.37318C4.46787 6.33307 2.91797 7.88297 2.91797 9.78828V25.3257C2.01957 25.1639 1.33594 24.3762 1.33594 23.4317V8.53227C1.33594 6.46409 3.01877 4.78125 5.08723 4.78125H26.337C27.2703 4.78125 28.0506 5.4495 28.2245 6.33307H20.5989C20.2105 6.33307 19.8957 6.64783 19.8957 7.0362C19.8957 7.42457 20.2105 7.73933 20.5989 7.73933H28.9639H28.9647H29.3253C30.2531 7.73933 31.0298 8.39988 31.2097 9.27549H9.18129C7.53334 9.27549 6.19246 10.6164 6.19246 12.2646V23.8645V23.8651V28.3126C5.15727 28.2832 4.32423 27.4321 4.32423 26.3898Z" fill="white"/>
<path d="M27.2494 13.5435C25.5899 13.5435 24.2402 14.8934 24.2402 16.5523C24.2402 18.2115 25.5902 19.5615 27.2494 19.5615C28.9083 19.5615 30.2582 18.2115 30.2582 16.5523C30.2582 14.8934 28.9083 13.5435 27.2494 13.5435ZM27.2494 18.1552C26.3655 18.1552 25.6465 17.4362 25.6465 16.5526C25.6465 15.6688 26.3655 14.9497 27.2494 14.9497C28.1329 14.9497 28.852 15.6688 28.852 16.5526C28.852 17.4362 28.1329 18.1552 27.2494 18.1552Z" fill="white"/>
<path d="M17.1398 7.30534C17.1574 7.34764 17.1791 7.38828 17.2044 7.42646C17.2299 7.46491 17.2593 7.50089 17.2917 7.5333C17.3241 7.56544 17.3598 7.5951 17.3985 7.6212C17.4365 7.64646 17.4779 7.66816 17.5202 7.68574C17.5623 7.70332 17.6068 7.71678 17.6518 7.72584C17.6966 7.7349 17.743 7.7393 17.7889 7.7393C17.8353 7.7393 17.8809 7.7349 17.9268 7.72584C17.9715 7.71678 18.0152 7.70332 18.058 7.68574C18.1003 7.66816 18.141 7.64646 18.1792 7.6212C18.2176 7.5951 18.2536 7.56544 18.286 7.5333C18.319 7.50089 18.3478 7.46491 18.3739 7.42646C18.3992 7.38828 18.4209 7.34764 18.4385 7.30534C18.4561 7.26249 18.4695 7.21827 18.4786 7.17405C18.4876 7.12818 18.492 7.08177 18.492 7.03617C18.492 6.9903 18.4876 6.94389 18.4786 6.89912C18.4695 6.85407 18.4561 6.80958 18.4385 6.76756C18.4209 6.72471 18.3992 6.68379 18.3739 6.64588C18.3478 6.60716 18.319 6.57145 18.286 6.53904C18.2536 6.50663 18.2176 6.47724 18.1792 6.4517C18.141 6.42643 18.1003 6.40473 18.058 6.38715C18.0152 6.36958 17.9715 6.35612 17.9268 6.34705C17.8358 6.32865 17.7424 6.32865 17.6518 6.34705C17.6068 6.35612 17.5623 6.36958 17.5202 6.38715C17.4779 6.40473 17.4365 6.42643 17.3985 6.4517C17.3598 6.47724 17.3241 6.50663 17.2917 6.53904C17.2593 6.57145 17.2299 6.60716 17.2044 6.64588C17.1791 6.68379 17.1574 6.72471 17.1398 6.76756C17.1222 6.80958 17.1088 6.85407 17.0997 6.89912C17.0906 6.94389 17.0857 6.9903 17.0857 7.03617C17.0857 7.08177 17.0906 7.12818 17.0997 7.17405C17.1088 7.21827 17.1222 7.26249 17.1398 7.30534Z" fill="white"/>
</g>
<defs>
<clipPath id="clip0">
<rect width="36" height="36" fill="white"/>
</clipPath>
</defs>
</svg>
