<svg width="40" height="40" viewBox="0 0 40 40" fill="none" xmlns="http://www.w3.org/2000/svg">
<path d="M17.7852 24.1484C17.7852 22.9362 17.9355 21.9701 18.2363 21.25C18.5371 20.5299 19.1296 19.7415 20.0137 18.8848C20.9069 18.0189 21.472 17.4036 21.709 17.0391C22.0736 16.4831 22.2559 15.8815 22.2559 15.2344C22.2559 14.3776 22.0417 13.7259 21.6133 13.2793C21.194 12.8236 20.5742 12.5957 19.7539 12.5957C18.9701 12.5957 18.3366 12.819 17.8535 13.2656C17.3796 13.7031 17.1426 14.3001 17.1426 15.0566H13.8203C13.8385 13.4434 14.3854 12.1673 15.4609 11.2285C16.5456 10.2897 17.9766 9.82031 19.7539 9.82031C21.5859 9.82031 23.0124 10.2852 24.0332 11.2148C25.0632 12.1445 25.5781 13.4434 25.5781 15.1113C25.5781 16.597 24.8854 18.0599 23.5 19.5L21.8184 21.1543C21.2168 21.8379 20.9069 22.8359 20.8887 24.1484H17.7852ZM17.5527 28.4004C17.5527 27.8626 17.7214 27.4297 18.0586 27.1016C18.3958 26.7643 18.8516 26.5957 19.4258 26.5957C20.0091 26.5957 20.4694 26.7689 20.8066 27.1152C21.1439 27.4525 21.3125 27.8809 21.3125 28.4004C21.3125 28.9017 21.1484 29.321 20.8203 29.6582C20.4922 29.9954 20.0273 30.1641 19.4258 30.1641C18.8242 30.1641 18.3594 29.9954 18.0312 29.6582C17.7122 29.321 17.5527 28.9017 17.5527 28.4004Z" fill="black"/>
</svg>
