<svg width="40" height="40" viewBox="0 0 40 40" fill="none" xmlns="http://www.w3.org/2000/svg">
<mask id="path-1-inside-1" fill="white">
<path d="M9.86968 17.972C9.30241 17.972 8.84111 18.4336 8.84111 19.0006V32.3092C7.81229 33.4131 7.24854 34.844 7.24854 36.3612V36.4572C7.24854 36.7414 7.47881 36.9715 7.76282 36.9715H29.0313C29.3154 36.9715 29.5456 36.7414 29.5456 36.4572V36.3612C29.5456 34.8174 28.9618 33.3629 27.8976 32.2505V19.0006C27.8976 18.503 27.5422 18.087 27.0718 17.9925L31.9019 10.5023C31.9188 10.476 31.9237 10.4445 31.9356 10.4158C31.9492 10.3825 31.9681 10.3507 31.9744 10.3161C31.9748 10.3143 31.9761 10.3128 31.9764 10.311L32.7438 5.8637C32.779 5.65979 32.6886 5.45438 32.5141 5.34288C32.3398 5.23189 32.1156 5.23591 31.9448 5.35293L28.3066 7.86609C28.2852 7.88097 28.2724 7.90439 28.2536 7.92209C28.2259 7.94808 28.1946 7.96927 28.1725 8.0022C28.1705 8.00521 28.1705 8.00879 28.1685 8.01184C28.1667 8.01476 28.1633 8.01632 28.1615 8.01928L22.0121 17.972H21.7412V7.50097H22.5448V11.8694C22.5448 12.1537 22.775 12.3837 23.0591 12.3837C23.3431 12.3837 23.5733 12.1537 23.5733 11.8694V6.98669C23.5733 6.70242 23.3431 6.4724 23.0591 6.4724H21.7412V4.37759C21.7412 3.63378 21.136 3.02859 20.3922 3.02859H18.946C18.2022 3.02859 17.5973 3.63378 17.5973 4.37759V17.972H16.7998L13.8358 4.82859C13.8057 4.6955 13.7241 4.57949 13.6088 4.50666C13.4933 4.43434 13.3547 4.41024 13.2206 4.43987L8.17013 5.58194C7.89315 5.64472 7.71938 5.91995 7.78191 6.19718L10.1913 16.8593C10.1914 16.8597 10.1913 16.8601 10.1914 16.8606C10.1915 16.8611 10.1918 16.8614 10.1919 16.862L10.4428 17.972H9.86968ZM11.0771 19.0005C11.0802 19.0006 11.083 19.0021 11.0861 19.0021C11.0907 19.0021 11.0955 19.0007 11.1002 19.0005L18.0904 19.0003C18.0978 19.0006 18.1041 19.0046 18.1116 19.0046C18.1191 19.0046 18.1253 19.0006 18.1327 19.0003L21.2053 19.0002C21.2129 19.0006 21.2193 19.0046 21.2269 19.0046C21.2346 19.0046 21.2409 19.0006 21.2485 19.0002L22.2955 19.0002C22.2964 19.0002 22.2973 19.0006 22.2982 19.0006C22.2992 19.0006 22.3001 19.0002 22.3011 19.0002L26.869 19.0001V32.0024H9.86968V19.0006L11.0771 19.0005ZM28.4997 35.9429H8.29443C8.38571 34.8533 8.83578 33.8391 9.58087 33.0309H27.2133C27.9584 33.8391 28.4085 34.8533 28.4997 35.9429ZM31.098 9.35324L29.5115 8.28433L31.5222 6.89528L31.098 9.35324ZM28.7554 9.01486L30.7644 10.3683L25.8612 17.972H23.2208L28.7554 9.01486ZM18.946 4.05717H20.3922C20.569 4.05717 20.7126 4.2008 20.7126 4.37759V6.4724H18.6259V4.37759C18.6259 4.2008 18.7695 4.05717 18.946 4.05717ZM18.6259 7.50097H20.7126V17.972H18.6259V7.50097ZM11.3083 17.1355L11.9652 16.9871C12.2422 16.9244 12.4163 16.6491 12.3537 16.3719C12.2912 16.0952 12.0175 15.9209 11.7387 15.9837L11.0815 16.1321L10.673 14.3241L11.3304 14.1756C11.6074 14.1129 11.7814 13.8376 11.7189 13.5604C11.6561 13.2837 11.3809 13.1104 11.1039 13.1722L10.4462 13.3207L10.0377 11.5129L10.6956 11.3646C10.9728 11.3024 11.1469 11.0271 11.0843 10.7499C11.0216 10.4727 10.7466 10.2994 10.4696 10.3612L9.81102 10.5096L9.40251 8.70187L10.061 8.55315C10.338 8.49037 10.512 8.21515 10.4495 7.93791C10.3867 7.66118 10.11 7.48741 9.83453 7.54969L9.17579 7.69844L8.89862 6.4719L12.9456 5.55683L15.7454 17.972H11.4973L11.3083 17.1355Z"/>
</mask>
<path d="M9.86968 17.972C9.30241 17.972 8.84111 18.4336 8.84111 19.0006V32.3092C7.81229 33.4131 7.24854 34.844 7.24854 36.3612V36.4572C7.24854 36.7414 7.47881 36.9715 7.76282 36.9715H29.0313C29.3154 36.9715 29.5456 36.7414 29.5456 36.4572V36.3612C29.5456 34.8174 28.9618 33.3629 27.8976 32.2505V19.0006C27.8976 18.503 27.5422 18.087 27.0718 17.9925L31.9019 10.5023C31.9188 10.476 31.9237 10.4445 31.9356 10.4158C31.9492 10.3825 31.9681 10.3507 31.9744 10.3161C31.9748 10.3143 31.9761 10.3128 31.9764 10.311L32.7438 5.8637C32.779 5.65979 32.6886 5.45438 32.5141 5.34288C32.3398 5.23189 32.1156 5.23591 31.9448 5.35293L28.3066 7.86609C28.2852 7.88097 28.2724 7.90439 28.2536 7.92209C28.2259 7.94808 28.1946 7.96927 28.1725 8.0022C28.1705 8.00521 28.1705 8.00879 28.1685 8.01184C28.1667 8.01476 28.1633 8.01632 28.1615 8.01928L22.0121 17.972H21.7412V7.50097H22.5448V11.8694C22.5448 12.1537 22.775 12.3837 23.0591 12.3837C23.3431 12.3837 23.5733 12.1537 23.5733 11.8694V6.98669C23.5733 6.70242 23.3431 6.4724 23.0591 6.4724H21.7412V4.37759C21.7412 3.63378 21.136 3.02859 20.3922 3.02859H18.946C18.2022 3.02859 17.5973 3.63378 17.5973 4.37759V17.972H16.7998L13.8358 4.82859C13.8057 4.6955 13.7241 4.57949 13.6088 4.50666C13.4933 4.43434 13.3547 4.41024 13.2206 4.43987L8.17013 5.58194C7.89315 5.64472 7.71938 5.91995 7.78191 6.19718L10.1913 16.8593C10.1914 16.8597 10.1913 16.8601 10.1914 16.8606C10.1915 16.8611 10.1918 16.8614 10.1919 16.862L10.4428 17.972H9.86968ZM11.0771 19.0005C11.0802 19.0006 11.083 19.0021 11.0861 19.0021C11.0907 19.0021 11.0955 19.0007 11.1002 19.0005L18.0904 19.0003C18.0978 19.0006 18.1041 19.0046 18.1116 19.0046C18.1191 19.0046 18.1253 19.0006 18.1327 19.0003L21.2053 19.0002C21.2129 19.0006 21.2193 19.0046 21.2269 19.0046C21.2346 19.0046 21.2409 19.0006 21.2485 19.0002L22.2955 19.0002C22.2964 19.0002 22.2973 19.0006 22.2982 19.0006C22.2992 19.0006 22.3001 19.0002 22.3011 19.0002L26.869 19.0001V32.0024H9.86968V19.0006L11.0771 19.0005ZM28.4997 35.9429H8.29443C8.38571 34.8533 8.83578 33.8391 9.58087 33.0309H27.2133C27.9584 33.8391 28.4085 34.8533 28.4997 35.9429ZM31.098 9.35324L29.5115 8.28433L31.5222 6.89528L31.098 9.35324ZM28.7554 9.01486L30.7644 10.3683L25.8612 17.972H23.2208L28.7554 9.01486ZM18.946 4.05717H20.3922C20.569 4.05717 20.7126 4.2008 20.7126 4.37759V6.4724H18.6259V4.37759C18.6259 4.2008 18.7695 4.05717 18.946 4.05717ZM18.6259 7.50097H20.7126V17.972H18.6259V7.50097ZM11.3083 17.1355L11.9652 16.9871C12.2422 16.9244 12.4163 16.6491 12.3537 16.3719C12.2912 16.0952 12.0175 15.9209 11.7387 15.9837L11.0815 16.1321L10.673 14.3241L11.3304 14.1756C11.6074 14.1129 11.7814 13.8376 11.7189 13.5604C11.6561 13.2837 11.3809 13.1104 11.1039 13.1722L10.4462 13.3207L10.0377 11.5129L10.6956 11.3646C10.9728 11.3024 11.1469 11.0271 11.0843 10.7499C11.0216 10.4727 10.7466 10.2994 10.4696 10.3612L9.81102 10.5096L9.40251 8.70187L10.061 8.55315C10.338 8.49037 10.512 8.21515 10.4495 7.93791C10.3867 7.66118 10.11 7.48741 9.83453 7.54969L9.17579 7.69844L8.89862 6.4719L12.9456 5.55683L15.7454 17.972H11.4973L11.3083 17.1355Z" fill="white" stroke="#1D1D1B" stroke-width="14.6286" mask="url(#path-1-inside-1)"/>
</svg>
