<svg width="97" height="87" viewBox="0 0 97 87" fill="none" xmlns="http://www.w3.org/2000/svg">
<path d="M0 52H32L48 24L64 52H95.5" stroke="black"/>
<path d="M76.3184 31.7168L76.3379 32.6201C76.5365 32.2946 76.7839 32.0472 77.0801 31.8779C77.3763 31.7054 77.7035 31.6191 78.0615 31.6191C78.6279 31.6191 79.0495 31.7786 79.3262 32.0977C79.6029 32.4167 79.7428 32.8952 79.7461 33.5332V37H79.165V33.5283C79.1618 33.0563 79.0609 32.7048 78.8623 32.4736C78.667 32.2425 78.3529 32.127 77.9199 32.127C77.5586 32.127 77.238 32.2409 76.958 32.4688C76.6813 32.6934 76.4762 32.9977 76.3428 33.3818V37H75.7617V31.7168H76.3184ZM87.7295 32.9521H83.6572V32.4346H87.7295V32.9521ZM87.7295 34.959H83.6572V34.4414H87.7295V34.959ZM94.2871 37H93.7012V30.5938L91.7676 31.3115V30.7646L94.1895 29.8662H94.2871V37Z" fill="black"/>
<path d="M0 86.5H11L16 77.5L21 86.5H32L37.5 77.5L31.5 68H43L48 59L53 68H64L58.5 77.5L63.5 86.5H74.5L79.5 77.5L85 86.5H95.5" stroke="black"/>
<path d="M76.3184 65.7168L76.3379 66.6201C76.5365 66.2946 76.7839 66.0472 77.0801 65.8779C77.3763 65.7054 77.7035 65.6191 78.0615 65.6191C78.6279 65.6191 79.0495 65.7786 79.3262 66.0977C79.6029 66.4167 79.7428 66.8952 79.7461 67.5332V71H79.165V67.5283C79.1618 67.0563 79.0609 66.7048 78.8623 66.4736C78.667 66.2425 78.3529 66.127 77.9199 66.127C77.5586 66.127 77.238 66.2409 76.958 66.4688C76.6813 66.6934 76.4762 66.9977 76.3428 67.3818V71H75.7617V65.7168H76.3184ZM87.7295 66.9521H83.6572V66.4346H87.7295V66.9521ZM87.7295 68.959H83.6572V68.4414H87.7295V68.959ZM96.0205 71H91.5674V70.5508L94.0039 67.7871C94.4076 67.3216 94.6875 66.9375 94.8438 66.6348C95 66.332 95.0781 66.0374 95.0781 65.751C95.0781 65.3018 94.9463 64.9469 94.6826 64.6865C94.4189 64.4229 94.056 64.291 93.5938 64.291C93.1152 64.291 92.7279 64.444 92.4316 64.75C92.1387 65.056 91.9922 65.4531 91.9922 65.9414H91.4111C91.4111 65.541 91.5007 65.1764 91.6797 64.8477C91.862 64.5189 92.1191 64.2617 92.4512 64.0762C92.7865 63.8874 93.1673 63.793 93.5938 63.793C94.2448 63.793 94.7526 63.9639 95.1172 64.3057C95.485 64.6475 95.6689 65.113 95.6689 65.7021C95.6689 66.0342 95.5648 66.3971 95.3564 66.791C95.1514 67.1849 94.7884 67.6764 94.2676 68.2656L92.2852 70.5068H96.0205V71Z" fill="black"/>
<path d="M0 17.0001H95.5" stroke="black"/>
<path d="M76.3184 3.71686L76.3379 4.62018C76.5365 4.29466 76.7839 4.04726 77.0801 3.87799C77.3763 3.70546 77.7035 3.6192 78.0615 3.6192C78.6279 3.6192 79.0495 3.77871 79.3262 4.09772C79.6029 4.41673 79.7428 4.89524 79.7461 5.53326V9.00006H79.165V5.52838C79.1618 5.05638 79.0609 4.70481 78.8623 4.47369C78.667 4.24257 78.3529 4.12701 77.9199 4.12701C77.5586 4.12701 77.238 4.24095 76.958 4.46881C76.6813 4.69342 76.4762 4.99778 76.3428 5.3819V9.00006H75.7617V3.71686H76.3184ZM87.7295 4.95221H83.6572V4.43463H87.7295V4.95221ZM87.7295 6.95905H83.6572V6.44147H87.7295V6.95905ZM95.8545 6.03619C95.8545 7.0388 95.6706 7.80052 95.3027 8.32135C94.9349 8.83893 94.3929 9.09772 93.6768 9.09772C92.9736 9.09772 92.4349 8.84381 92.0605 8.336C91.6862 7.82493 91.4941 7.08274 91.4844 6.10944V4.83502C91.4844 3.83567 91.6699 3.07884 92.041 2.56451C92.4121 2.05019 92.9541 1.79303 93.667 1.79303C94.3701 1.79303 94.9072 2.04205 95.2783 2.5401C95.6494 3.03489 95.8415 3.76569 95.8545 4.73248V6.03619ZM95.2686 4.76178C95.2686 3.94798 95.1351 3.33274 94.8682 2.91608C94.6045 2.49941 94.2041 2.29108 93.667 2.29108C93.1396 2.29108 92.7425 2.49453 92.4756 2.90143C92.2087 3.30833 92.0719 3.90892 92.0654 4.70319V6.09967C92.0654 6.91022 92.2021 7.53033 92.4756 7.96002C92.7523 8.38971 93.1527 8.60455 93.6768 8.60455C94.1976 8.60455 94.5915 8.39459 94.8584 7.97467C95.1286 7.55475 95.2653 6.93951 95.2686 6.12897V4.76178Z" fill="black"/>
</svg>
