<svg width="52" height="51" viewBox="0 0 52 51" fill="none" xmlns="http://www.w3.org/2000/svg">
<path d="M9 16H12.9162L14.6963 12.7273L16.4764 16H20.3927L22.3508 12.7273L20.2147 9.27273H24.3089L26.089 6L27.8691 9.27273H31.7853L29.8272 12.7273L31.6073 16H35.5236L37.3037 12.7273L39.2618 16H43" stroke="black"/>
<path d="M25.9266 44.8066L24.0109 41.4886L20.4254 41.5477L22.2694 38.4722L20.3537 35.1541L16.6811 35.0625L14.8605 38.5268L12.8577 35.0579L9.27221 35.1171L11.1162 32.0415L9.20054 28.7235L13.024 28.728L14.868 25.6525L12.9523 22.3344L9.36676 22.3936L11.1237 19.1672L9.29509 16" stroke="black"/>
<path d="M42.6315 16L40.7158 19.318L42.5598 22.3936L38.9743 22.3344L37.0586 25.6525L38.8156 28.8789L42.7261 28.7235L40.7233 32.1923L42.5673 35.2679L38.9818 35.2087L37.0661 38.5268L35.1584 35.2133L31.5729 35.1541L29.6572 38.4722L31.5012 41.5478L27.8286 41.6394L26 44.8066" stroke="black"/>
</svg>
