<svg width="40" height="40" viewBox="0 0 40 40" fill="none" xmlns="http://www.w3.org/2000/svg">
<path d="M35.9953 11.7367C34.7264 9.28543 32.8771 7.12367 30.6474 5.48532C30.4122 5.31256 30.0813 5.36298 29.9084 5.59831C29.7355 5.83358 29.7861 6.1644 30.0214 6.3373C34.2128 9.41705 36.7703 14.2956 36.9339 19.4713H32.909V15.4393C32.909 13.1032 31.2481 11.1479 29.0451 10.6916C28.1531 8.16212 26.9033 6.03348 25.4193 4.52534C25.1022 4.20317 24.7756 3.91109 24.4412 3.64883C25.6774 3.98338 26.874 4.45665 28.0016 5.06197C28.2588 5.19999 28.5794 5.10345 28.7174 4.84625C28.8555 4.58898 28.7589 4.26849 28.5017 4.1304C25.9055 2.73666 22.9656 2 20 2C15.192 2 10.6718 3.87228 7.2721 7.27203C3.87242 10.6718 2 15.192 2 20C2 21.825 2.27232 23.6259 2.8093 25.3525C2.87975 25.5791 3.08858 25.7243 3.314 25.7243C3.36596 25.7243 3.41891 25.7165 3.47115 25.7002C3.74994 25.6135 3.90561 25.3172 3.81891 25.0385C3.36547 23.5805 3.11326 22.0658 3.06615 20.5286H7.09105V24.4449C7.09105 26.7655 8.73003 28.7094 10.9109 29.1825C11.7989 31.7476 13.0521 33.9077 14.5465 35.4396C14.8719 35.7731 15.2074 36.0747 15.5511 36.3449C10.7602 35.0353 6.68211 31.6535 4.56838 27.0045C4.44758 26.7388 4.13441 26.621 3.86834 26.7421C3.60256 26.8629 3.48507 27.1762 3.60594 27.4421C5.01725 30.5463 7.27379 33.1792 10.1316 35.056C13.0641 36.982 16.4766 38 20 38C24.808 38 29.3282 36.1277 32.7279 32.7279C36.1276 29.3281 38 24.8079 38 20C38 17.1278 37.3067 14.2704 35.9953 11.7367ZM27.883 10.591H20.5287V3.08464C21.9769 3.23138 23.3971 3.97803 24.6657 5.26707C25.9538 6.57601 27.0575 8.40709 27.883 10.591ZM19.4713 10.591H12.117C12.9425 8.4068 14.0464 6.57559 15.3348 5.26658C16.6032 3.97782 18.0233 3.23131 19.4713 3.08464V10.591ZM3.06636 19.4713C3.29973 11.8981 8.52683 5.56133 15.5584 3.64925C15.2243 3.91123 14.898 4.2031 14.5812 4.52492C13.0969 6.03305 11.8469 8.16191 10.9548 10.6917C8.7519 11.1479 7.09105 13.1033 7.09105 15.4394V19.4713H3.06636ZM8.14834 24.4449V15.4394C8.14834 13.3489 9.84905 11.6483 11.9394 11.6483H28.0604C30.1509 11.6483 31.8516 13.349 31.8516 15.4394V24.4449C31.8516 26.5354 30.1509 28.2361 28.0604 28.2361H11.9394C9.84905 28.2361 8.14834 26.5354 8.14834 24.4449ZM12.0723 29.2934H19.4713V36.9152C16.4974 36.6119 13.7331 33.7674 12.0723 29.2934ZM24.4416 36.3507C25.8954 35.2099 27.1911 33.5054 28.2233 31.3192C28.348 31.0552 28.2349 30.7401 27.971 30.6154C27.7071 30.4908 27.3919 30.6038 27.2672 30.8678C25.5598 34.4842 23.1276 36.6558 20.5287 36.9161V29.2934H28.0605C30.734 29.2934 32.909 27.1184 32.909 24.445V20.5287H36.9336C36.7003 28.1018 31.4732 34.4386 24.4416 36.3507Z" fill="black"/>
<path d="M19.8554 16.9339H26.9457C26.3874 18.0262 25.5834 19.2083 24.6334 20.3246C24.5449 20.4287 24.4553 20.5312 24.3653 20.6329C23.9449 20.1306 23.5896 19.6252 23.3285 19.1526C23.1875 18.8972 22.8657 18.8041 22.6101 18.9455C22.3546 19.0867 22.2619 19.4083 22.4031 19.6639C22.7132 20.2254 23.1382 20.8238 23.6394 21.4114C22.7978 22.2679 21.9266 22.9995 21.1094 23.5287C20.8643 23.6875 20.7942 24.0148 20.9529 24.2598C21.1127 24.5069 21.4424 24.5736 21.684 24.4163C22.5516 23.8545 23.4708 23.0861 24.3556 22.1906C24.409 22.2445 24.4629 22.2982 24.5173 22.3515C25.402 23.218 26.3719 23.9489 27.2482 24.4096C27.5014 24.5442 27.8256 24.4486 27.962 24.1876C28.098 23.9292 27.9985 23.6096 27.7401 23.4737C26.9523 23.0596 26.0705 22.3928 25.2571 21.5962C25.1974 21.5377 25.1386 21.4787 25.0803 21.4195C25.2008 21.2847 25.3206 21.1486 25.4386 21.0098C26.5787 19.67 27.5249 18.2305 28.1207 16.934H29.245C29.537 16.934 29.7737 16.6973 29.7737 16.4053C29.7737 16.1133 29.537 15.8766 29.245 15.8766H24.9877V13.8617C24.9877 13.5696 24.751 13.333 24.459 13.333C24.167 13.333 23.9303 13.5696 23.9303 13.8617V15.8766H19.8552C19.5632 15.8766 19.3265 16.1133 19.3265 16.4053C19.3265 16.6973 19.5634 16.9339 19.8554 16.9339Z" fill="black"/>
<path d="M16.7658 22.9358L17.4313 24.6991C17.5343 24.9723 17.8394 25.1102 18.1125 25.007C18.3857 24.9039 18.5235 24.599 18.4204 24.3258L15.2303 15.8725C15.2285 15.8677 15.2266 15.863 15.2246 15.8582C15.1127 15.5859 14.8503 15.4101 14.556 15.4101C14.5558 15.4101 14.5556 15.4101 14.5554 15.4101C14.2609 15.4104 13.9984 15.5867 13.8868 15.8593C13.8852 15.8633 13.8836 15.8674 13.882 15.8714L10.6627 24.3243C10.5588 24.5971 10.6957 24.9025 10.9686 25.0065C11.2343 25.1098 11.5471 24.9762 11.6508 24.7005L12.3229 22.9358H16.7658ZM14.5546 17.0763L16.3669 21.8785H12.7257L14.5546 17.0763Z" fill="black"/>
</svg>
