<svg width="40" height="40" viewBox="0 0 40 40" fill="none" xmlns="http://www.w3.org/2000/svg">
<path d="M34.3199 15.2602C34.2549 15.2591 34.1895 15.2591 34.1242 15.2602C34.2488 14.7013 34.3064 14.1277 34.2957 13.5494C34.2911 13.2999 34.2733 13.0482 34.2428 12.8012C34.2031 12.4784 33.9085 12.2493 33.5864 12.2888C33.2637 12.3286 33.0343 12.6225 33.0742 12.9452C33.0996 13.1519 33.1145 13.3624 33.1183 13.5712C33.1295 14.1767 33.0515 14.7756 32.8864 15.3514C32.8071 15.6281 32.8694 15.9256 33.053 16.1472C33.2352 16.3671 33.5126 16.4829 33.7977 16.4566C33.9636 16.4413 34.1331 16.4348 34.3009 16.4377C36.7725 16.4779 38.8008 18.5219 38.8222 20.9941C38.8329 22.2304 38.3598 23.3945 37.4899 24.2719C36.6199 25.1495 35.4602 25.6327 34.2245 25.6327H19.0199C15.9884 23.1912 13.9583 19.5283 13.7178 15.3453C13.6691 14.4966 13.695 13.6559 13.7932 12.8269C14.6658 12.4125 15.6397 12.1791 16.6668 12.1791C16.6865 12.1791 16.7067 12.1792 16.7265 12.1794C17.6673 12.1876 18.599 12.3952 19.4503 12.782C19.4937 12.818 19.543 12.8485 19.5977 12.8716C19.6313 12.8857 22.9584 14.3247 22.9584 17.538C22.9584 17.8632 23.222 18.1269 23.5472 18.1269C23.8724 18.1269 24.136 17.8633 24.136 17.538C24.136 14.8777 22.393 13.2382 21.1837 12.4207C21.4648 11.103 22.1941 9.90125 23.2387 9.03609C24.2991 8.15773 25.6423 7.66617 27.0209 7.65179C28.8628 7.63203 30.5948 8.44921 31.7684 9.89195C31.9736 10.1441 32.3445 10.1824 32.5967 9.97718C32.8491 9.77195 32.8871 9.40109 32.682 9.1489C31.2968 7.44601 29.2604 6.4739 27.0846 6.4739C27.0594 6.4739 27.0339 6.47398 27.0087 6.47429C25.3609 6.4914 23.7552 7.07914 22.4875 8.12921C21.3404 9.07929 20.5111 10.3699 20.1235 11.7964C19.0734 11.2857 17.9108 11.012 16.7368 11.0018C16.7134 11.0016 16.6901 11.0015 16.6667 11.0015C15.7413 11.0015 14.852 11.162 14.0252 11.4562C14.1703 10.7977 14.3619 10.1483 14.6019 9.51054C15.2801 7.70859 16.3007 6.08499 17.6353 4.68484C17.9098 4.39687 17.9868 3.97429 17.8316 3.6082C17.6762 3.24187 17.3185 3.00327 16.9204 3.00038C16.5562 2.99796 16.1862 3.00702 15.8223 3.02796C11.4443 3.27976 7.3989 5.19562 4.43139 8.42289C1.47069 11.6427 -0.101267 15.8199 0.00506159 20.1853C0.0774054 23.1542 0.927719 26.0494 2.46405 28.5576C2.63397 28.835 2.99655 28.9218 3.27366 28.7521C3.551 28.5823 3.63811 28.2198 3.46827 27.9425C2.04014 25.6109 1.24967 22.9185 1.18233 20.1566C1.08342 16.098 2.54514 12.2139 5.29819 9.21992C8.05741 6.21921 11.819 4.43773 15.8898 4.20374C16.0909 4.19218 16.2939 4.18437 16.4966 4.18054C15.1918 5.62421 14.1844 7.27578 13.4994 9.09578C12.7393 11.1157 12.4171 13.2411 12.542 15.413C13.0133 23.6122 19.8341 29.9669 27.946 29.9663C28.1723 29.9663 28.4006 29.9613 28.6289 29.9513C27.3535 31.4393 25.8327 32.658 24.1032 33.5772C22.1905 34.5938 20.1175 35.1908 17.9416 35.3517C13.3781 35.6885 8.91804 34.0257 5.70374 30.7884C5.47475 30.5577 5.10194 30.5563 4.87108 30.7854C4.6403 31.0145 4.63897 31.3873 4.86811 31.6181C8.03116 34.8039 12.3152 36.5724 16.7794 36.5722C17.1942 36.5722 17.6113 36.5569 18.0284 36.526C20.3682 36.3531 22.5981 35.7108 24.6559 34.617C26.6463 33.5592 28.3793 32.1329 29.807 30.3777C30.0589 30.068 30.1029 29.6393 29.9191 29.2855C29.7363 28.9338 29.3633 28.7249 28.967 28.7525C28.9028 28.757 28.8384 28.7611 28.7741 28.7649C25.8467 28.9331 23.072 28.201 20.7194 26.8103H34.2245C35.7766 26.8103 37.2333 26.2032 38.3261 25.1009C39.4188 23.9988 40.0131 22.5366 39.9998 20.9838C39.9729 17.8783 37.425 15.3107 34.3199 15.2602Z" fill="black"/>
</svg>
