<svg width="40" height="40" viewBox="0 0 40 40" fill="none" xmlns="http://www.w3.org/2000/svg">
<path d="M29.3828 15.9307C32.1679 15.9628 34.5272 14.0416 35.1595 11.4438L36.7072 11.4616C37.4383 11.47 38.0377 10.8842 38.0461 10.1531C38.0546 9.42198 37.4688 8.82258 36.7377 8.81416L35.19 8.79635C34.6178 6.18481 32.3031 4.20972 29.5181 4.17767C26.733 4.14562 24.3736 6.06678 23.7414 8.66461L3.38747 8.43039C2.65634 8.42198 2.05694 9.00774 2.04853 9.73886C2.04012 10.47 2.62588 11.0694 3.35701 11.0778L23.7109 11.312C24.2832 13.9237 26.5977 15.8987 29.3828 15.9307ZM29.4876 6.82523C31.2681 6.84572 32.7 8.31096 32.6795 10.0915C32.6591 11.872 31.1938 13.3039 29.4133 13.2834C27.6327 13.263 26.2008 11.7977 26.2213 10.0172C26.2418 8.23665 27.7071 6.80474 29.4876 6.82523Z" fill="#1D1D1B"/>
<path d="M20.1319 21.3261L36.5915 21.5155C37.3226 21.5239 37.922 20.9382 37.9304 20.2071C37.9388 19.4759 37.3531 18.8765 36.6219 18.8681L20.1624 18.6787C19.5902 16.0672 17.2756 14.0921 14.4905 14.06C11.7054 14.028 9.34606 15.9491 8.7138 18.547L3.27175 18.4843C2.54062 18.4759 1.94122 19.0617 1.93281 19.7928C1.92439 20.5239 2.51015 21.1233 3.24128 21.1318L8.68334 21.1944C9.2555 23.8059 11.5702 25.781 14.3552 25.8131C17.1403 25.8451 19.4997 23.924 20.1319 21.3261ZM14.46 16.7076C16.2406 16.7281 17.6725 18.1933 17.652 19.9739C17.6315 21.7544 16.1662 23.1863 14.3857 23.1658C12.6052 23.1453 11.1733 21.6801 11.1938 19.8995C11.2142 18.119 12.6795 16.6871 14.46 16.7076Z" fill="#1D1D1B"/>
<path d="M23.345 35.972C26.1301 36.004 28.4894 34.0829 29.1217 31.485L36.4758 31.5697C37.2069 31.5781 37.8063 30.9923 37.8147 30.2612C37.8231 29.5301 37.2374 28.9307 36.5062 28.9222L29.1522 28.8376C28.58 26.2261 26.2653 24.251 23.4802 24.2189C20.6952 24.1869 18.3358 26.108 17.7036 28.7059L3.15602 28.5385C2.42489 28.5301 1.8255 29.1158 1.81708 29.8469C1.80867 30.5781 2.39443 31.1775 3.12556 31.1859L17.6731 31.3533C18.2454 33.965 20.5599 35.9399 23.345 35.972ZM23.4498 26.8665C25.2303 26.887 26.6622 28.3522 26.6417 30.1328C26.6212 31.9133 25.156 33.3452 23.3755 33.3247C21.5949 33.3042 20.163 31.839 20.1835 30.0584C20.204 28.2779 21.6692 26.846 23.4498 26.8665Z" fill="#1D1D1B"/>
</svg>
