<svg width="40" height="40" viewBox="0 0 40 40" fill="none" xmlns="http://www.w3.org/2000/svg">
<path d="M16.933 11.7207C18.5111 11.7207 19.7951 10.4368 19.7951 8.8587C19.7951 7.28055 18.5111 5.99659 16.933 5.99659C15.3548 5.99659 14.0709 7.28055 14.0709 8.8587C14.0709 10.4368 15.3548 11.7207 16.933 11.7207ZM16.933 7.05912C17.9253 7.05912 18.7325 7.86636 18.7325 8.8587C18.7325 9.85096 17.9253 10.6582 16.933 10.6582C15.9407 10.6582 15.1335 9.85096 15.1335 8.8587C15.1335 7.86643 15.9407 7.05912 16.933 7.05912Z" fill="#1D1D1B"/>
<path d="M15.8801 32.9552C17.6861 32.9552 19.1555 31.4858 19.1555 29.6798C19.1555 27.8738 17.6861 26.4045 15.8801 26.4045C14.0741 26.4045 12.6047 27.8738 12.6047 29.6798C12.6047 31.4858 14.0741 32.9552 15.8801 32.9552ZM15.8801 27.467C17.1003 27.467 18.0929 28.4597 18.0929 29.6798C18.0929 30.9 17.1002 31.8927 15.8801 31.8927C14.66 31.8927 13.6673 30.9 13.6673 29.6798C13.6673 28.4597 14.6599 27.467 15.8801 27.467Z" fill="#1D1D1B"/>
<path d="M11.1893 11.3241C9.27454 11.3241 7.7168 12.8819 7.7168 14.7966C7.7168 16.7114 9.27454 18.2691 11.1893 18.2691C13.104 18.2691 14.6618 16.7114 14.6618 14.7966C14.6618 12.8819 13.104 11.3241 11.1893 11.3241ZM11.1893 17.2067C9.86042 17.2067 8.77933 16.1256 8.77933 14.7967C8.77933 13.4678 9.86049 12.3867 11.1893 12.3867C12.5181 12.3867 13.5993 13.4678 13.5993 14.7967C13.5993 16.1256 12.5182 17.2067 11.1893 17.2067Z" fill="#1D1D1B"/>
<path d="M10.1948 26.7019C12.1095 26.7019 13.6673 25.1441 13.6673 23.2294C13.6673 21.3146 12.1095 19.7569 10.1948 19.7569C8.28003 19.7569 6.72229 21.3146 6.72229 23.2294C6.72229 25.1441 8.28003 26.7019 10.1948 26.7019ZM10.1948 20.8193C11.5237 20.8193 12.6048 21.9004 12.6048 23.2293C12.6048 24.5582 11.5236 25.6393 10.1948 25.6393C8.86599 25.6393 7.78482 24.5582 7.78482 23.2293C7.78482 21.9004 8.86591 20.8193 10.1948 20.8193Z" fill="#1D1D1B"/>
<path d="M13.6558 36.7412C13.9441 36.7943 14.2211 36.6027 14.2739 36.314C14.3266 36.0254 14.1353 35.7487 13.8467 35.696C11.8104 35.3242 9.98878 34.314 8.57881 32.7746C4.47187 28.2908 2.64334 23.4548 3.14393 18.4007C4.27353 6.99464 16.3016 1.31735 27.3942 3.53597C28.8928 3.83568 29.4765 5.05716 29.5207 6.01201C29.5646 6.95454 29.1031 8.20825 27.6582 8.63992C25.7913 9.1976 24.3153 10.0116 23.271 11.0591C20.8777 13.4602 20.6703 17.5115 22.9557 20.2404C24.0842 21.5879 24.806 23.2219 25.0484 24.9741C23.8454 27.7086 22.6151 30.8052 21.663 33.6714C20.1333 34.9349 18.1979 35.7006 16.1958 35.8314C15.903 35.8505 15.6811 36.1033 15.7003 36.3961C15.7187 36.6771 15.9523 36.8928 16.23 36.8928C16.2416 36.8928 16.2533 36.8925 16.2651 36.8916C17.989 36.7791 19.669 36.2418 21.1296 35.3514C20.8206 36.4278 21.3251 37.5554 22.3396 38.0429C23.4229 38.5635 24.7344 38.151 25.3256 37.105C26.3486 35.2949 27.4571 33.098 28.531 30.7518C28.6532 30.4851 28.5358 30.1698 28.2692 30.0477C28.0022 29.9255 27.6871 30.0429 27.565 30.3096C26.5034 32.629 25.4091 34.7979 24.4006 36.5822C24.0835 37.1433 23.3805 37.3641 22.7998 37.0853C22.2503 36.8212 21.9795 36.2075 22.1559 35.626C23.5273 31.1021 25.8145 25.5953 27.9097 21.3373L30.7652 22.5596C30.0995 24.374 29.341 26.2632 28.5672 28.0544C28.4509 28.3238 28.5751 28.6364 28.8445 28.7526C29.1143 28.869 29.4265 28.7447 29.5428 28.4753C31.0004 25.0926 32.6273 20.8675 33.5767 17.313C33.9141 17.1918 34.158 16.9477 34.2873 16.6457L34.7471 15.5715C34.8456 15.3414 34.8674 15.0975 34.8244 14.8682C35.7087 14.3037 36.9464 13.2968 37.5878 11.7983C38.3803 9.94739 37.8537 6.8116 37.4693 5.10716C37.3957 4.78062 37.1679 4.50691 36.8601 4.37516C36.5522 4.2434 36.1971 4.26742 35.9099 4.43962C34.4113 5.33816 31.7789 7.12178 30.9866 8.97256C30.3454 10.4704 30.471 12.0605 30.6728 13.0901C30.4718 13.2205 30.3138 13.4073 30.2174 13.6325L29.7576 14.7067C29.6273 15.011 29.621 15.3549 29.7653 15.6814C28.3397 18.0175 26.9244 20.8527 25.7828 23.3403C25.3818 21.956 24.7011 20.6698 23.7704 19.5584C22.8792 18.4942 22.4273 17.2469 22.4273 15.8511C22.4273 12.8389 24.2896 10.7553 27.9624 9.6581C29.635 9.15843 30.6633 7.70794 30.5822 5.96285C30.5151 4.51952 29.5678 2.88727 27.6026 2.4942C15.909 0.155373 3.28156 6.23245 2.0865 18.296C1.55489 23.6635 3.47557 28.7763 7.7953 33.4923C9.36309 35.204 11.3896 36.3275 13.6558 36.7412ZM30.5801 16.3862C31.2764 16.6842 31.8079 16.9117 32.5042 17.2098C32.1569 18.4871 31.6864 19.9715 31.1259 21.5582L28.3853 20.385C29.1466 18.8839 29.8958 17.5189 30.5801 16.3862ZM33.7703 15.1533L33.3105 16.2275C33.2733 16.3142 33.1762 16.3417 33.1033 16.3104L30.8172 15.3318C30.7431 15.3001 30.6976 15.2104 30.7343 15.1247L31.1941 14.0505C31.2299 13.967 31.3247 13.9347 31.4014 13.9676L33.6873 14.9461C33.761 14.9777 33.8063 15.0691 33.7703 15.1533ZM31.9633 9.39063C32.1959 8.84718 33.0975 7.36801 36.4374 5.36203C37.2918 9.16353 36.8436 10.8366 36.611 11.3801C36.0624 12.6616 34.959 13.5317 34.1924 14.0108C34.164 13.9959 34.1349 13.982 34.1053 13.9694L31.8193 12.9908H31.8193C31.7897 12.9782 31.7597 12.9667 31.7292 12.9565C31.5469 12.071 31.4148 10.672 31.9633 9.39063Z" fill="#1D1D1B"/>
</svg>
