<svg width="40" height="40" viewBox="0 0 40 40" fill="none" xmlns="http://www.w3.org/2000/svg">
<path d="M7.03613 10.404H3.1922L4.72977 13.4747L3.1922 16.5455H6.65173L8.3815 20L6.65173 23.0707H3L5.11416 26.3333L3 29.596H6.65173L8.3815 32.6667L10.1113 29.596H14.3396L16.2616 32.6667L14.3396 36.1212H17.9913L19.7211 39L21.4509 36.1212H25.1026L23.1806 32.6667L25.1026 29.596H28.7543L30.2919 32.6667L32.2139 29.596H36.0578L34.328 26.3333L36.0578 23.4545H32.5983L30.4841 20L32.2139 16.9293H35.8656L34.1358 13.8586L36.25 10.404H32.5983L30.8685 7.52525L29.1387 10.404H25.1026L23.1806 6.94949L25.1026 3.68687H21.2587L19.5289 1L17.9913 3.68687H13.9552L16.0694 6.94949L13.9552 10.404H10.6879L8.7659 7.52525L7.03613 10.404Z" stroke="black"/>
</svg>
