<svg width="40" height="40" viewBox="0 0 40 40" fill="none" xmlns="http://www.w3.org/2000/svg">
<g clip-path="url(#clip0)">
<path d="M2.11391 5.30235L4.51482 9.5037C4.59581 9.64567 4.73136 9.74839 4.88987 9.78814L7.1298 10.3481L14.8123 18.0306L15.6611 17.182L7.85842 9.37951C7.78163 9.30247 7.68534 9.24791 7.57991 9.22149L5.42763 8.68151L3.3835 5.10236L5.13604 3.34982L8.71666 5.39593L9.25689 7.54821C9.28307 7.65388 9.33788 7.75042 9.41467 7.82721L17.2174 15.6299L18.066 14.7811L10.3835 7.09859L9.82354 4.8599C9.78379 4.70114 9.68108 4.56534 9.53911 4.48411L5.33751 2.08344C5.1032 1.95011 4.80839 1.98962 4.61729 2.17998L2.21662 4.58089C2.02354 4.77076 1.98157 5.06606 2.11391 5.30235Z" fill="black"/>
<path d="M27.0674 13.829L13.8631 27.0335L13.0143 26.1847L26.2188 12.9804L27.0674 13.829Z" fill="black"/>
<path d="M11.552 27.5007C11.4434 27.3199 11.2483 27.2096 11.0375 27.2096H7.43637C7.22576 27.2096 7.03046 27.3199 6.92206 27.5007L5.12138 30.5016C5.00707 30.6917 5.00707 30.9295 5.12138 31.1198L6.92206 34.1207C7.03046 34.3012 7.22576 34.4118 7.43637 34.4118H11.0375C11.2483 34.4118 11.4434 34.3012 11.552 34.1207L13.3525 31.1198C13.4668 30.9295 13.4668 30.6917 13.3525 30.5016L11.552 27.5007ZM10.698 33.2114H7.77611L6.33566 30.8107L7.77611 28.4098H10.698L12.1384 30.8107L10.698 33.2114Z" fill="black"/>
<path d="M30.844 16.406C34.8081 16.4193 38.0327 13.2165 38.046 9.25239C38.048 8.64895 37.9739 8.04798 37.8255 7.46306C37.7455 7.14135 37.4199 6.94555 37.0981 7.02555C36.9925 7.05197 36.8962 7.10653 36.8191 7.18332L33.083 10.917L30.1186 9.92916L29.13 6.96555L32.8662 3.22863C33.1005 2.99407 33.1002 2.61408 32.8657 2.37977C32.7884 2.30248 32.6911 2.24767 32.5847 2.2215C28.7404 1.24795 24.8351 3.57504 23.8615 7.41911C23.7136 8.00231 23.6398 8.60179 23.6418 9.2035C23.6433 9.67608 23.6919 10.1472 23.7877 10.6099L10.6432 23.7542C10.1805 23.6586 9.70937 23.61 9.23704 23.6082C5.25914 23.6082 2.03455 26.8328 2.03455 30.8107C2.03455 34.7884 5.25914 38.013 9.23704 38.013C13.2147 38.013 16.4393 34.7884 16.4393 30.8107C16.4378 30.3382 16.3889 29.8671 16.2934 29.4044L19.4402 26.2575L20.8164 27.6338C21.051 27.8681 21.4307 27.8681 21.6653 27.6338L21.9653 27.3336C22.2285 27.0721 22.6539 27.0721 22.9171 27.3336C23.1801 27.5958 23.1806 28.0214 22.9183 28.2844C22.9181 28.2846 22.9176 28.2851 22.9171 28.2856L22.6171 28.5856C22.3828 28.8199 22.3828 29.1999 22.6171 29.4342L29.7769 36.594C31.66 38.4944 34.7271 38.5083 36.6275 36.6251C38.5277 34.742 38.5416 31.6747 36.6584 29.7745C36.6483 29.7641 36.6379 29.7537 36.6275 29.7434L29.4678 22.5838C29.2335 22.3495 28.8535 22.3495 28.6192 22.5838L28.3192 22.8838C28.0557 23.1455 27.6305 23.1455 27.3671 22.8838C27.1044 22.6216 27.1036 22.1959 27.3659 21.9332C27.3664 21.9327 27.3668 21.9325 27.3671 21.932L27.6673 21.6318C27.9016 21.3974 27.9016 21.0175 27.6673 20.7831L26.2911 19.4069L29.4379 16.2601C29.9006 16.3556 30.3717 16.4045 30.844 16.406ZM33.2022 36.8128C32.7662 36.812 32.3338 36.7333 31.9257 36.5799L36.6132 31.8922C37.3206 33.7738 36.3688 35.8725 34.4871 36.5799C34.0765 36.7342 33.6412 36.8133 33.2022 36.8128ZM26.4027 21.2135C25.738 22.0063 25.8422 23.188 26.635 23.8524C27.3318 24.4364 28.3473 24.4359 29.0433 23.8507L35.7789 30.5922C35.852 30.6655 35.9204 30.7428 35.9866 30.8213L30.8549 35.953C30.7761 35.8871 30.6988 35.8187 30.6255 35.7454L23.8847 29.0041C24.5494 28.2113 24.4452 27.0296 23.6524 26.3652C22.9556 25.781 21.9399 25.7818 21.2438 26.3667L20.2836 25.4065L25.4422 20.2555L26.4027 21.2135ZM28.8263 15.1769L15.2107 28.7898C15.0613 28.9389 15.0013 29.1555 15.0522 29.3602C15.8756 32.5939 13.9216 35.8829 10.6876 36.7061C7.45388 37.5295 4.16485 35.5755 3.34142 32.3415C2.51823 29.1078 4.47225 25.8188 7.70622 24.9954C8.68446 24.7465 9.70937 24.7465 10.6876 24.9954C10.8923 25.0455 11.1083 24.9855 11.258 24.8371L24.8704 11.2239C25.0195 11.0748 25.0795 10.8583 25.0282 10.6538C24.2104 7.45788 26.1382 4.20415 29.3342 3.38615C29.9381 3.23184 30.5628 3.17258 31.185 3.21134L28.0189 6.37865C27.8582 6.53914 27.8019 6.77691 27.8737 6.99246L29.074 10.5938C29.1339 10.7728 29.2747 10.9136 29.4539 10.9731L33.0553 12.1735C33.2706 12.2454 33.5084 12.1893 33.6691 12.0288L36.8352 8.86277C36.8424 8.97734 36.8461 9.09067 36.8461 9.2035C36.8628 12.5014 34.2032 15.1885 30.9053 15.2055C30.3954 15.208 29.8873 15.1453 29.3934 15.0189C29.1888 14.9678 28.9722 15.0275 28.8231 15.1767H28.8263V15.1769Z" fill="black"/>
<path d="M33.0698 32.1867L32.2209 33.0356L26.2191 27.0338L27.0677 26.1849L33.0698 32.1867Z" fill="black"/>
</g>
<defs>
<clipPath id="clip0">
<rect width="36" height="36" fill="white" transform="translate(2 2)"/>
</clipPath>
</defs>
</svg>
