<svg width="100" height="70" viewBox="0 0 100 70" fill="none" xmlns="http://www.w3.org/2000/svg">
<line y1="9.30396" x2="100" y2="9.30396" stroke="#A4A4A4"/>
<line y1="36.1013" x2="100" y2="36.1013" stroke="#A4A4A4"/>
<line y1="62.8987" x2="100" y2="62.8987" stroke="black"/>
<line x1="13.5719" y1="1.0877e-08" x2="13.5719" y2="69.9346" stroke="black"/>
<line x1="27.2974" y1="1.0877e-08" x2="27.2974" y2="69.9346" stroke="#A4A4A4"/>
<line x1="40.3693" y1="1.0877e-08" x2="40.3693" y2="69.9346" stroke="#A4A4A4"/>
<line x1="54.0947" y1="1.0877e-08" x2="54.0947" y2="69.9346" stroke="#A4A4A4"/>
<line x1="66.5131" y1="1.0877e-08" x2="66.5131" y2="69.9346" stroke="#A4A4A4"/>
<line x1="80.2385" y1="1.0877e-08" x2="80.2385" y2="69.9346" stroke="#A4A4A4"/>
<line x1="94.6177" y1="1.0877e-08" x2="94.6177" y2="69.9346" stroke="#A4A4A4"/>
<path d="M68.9991 20.9128L27.6497 31.6377L48.7874 53.1071L91.0457 42.1465L68.9991 20.9128Z" stroke="#FF5454" stroke-width="1.2"/>
<ellipse rx="2.40982" ry="2.37899" transform="matrix(0.843494 0.537138 -0.562094 0.827073 27.3699 31.7686)" fill="#FF5454"/>
<ellipse rx="2.40982" ry="2.37899" transform="matrix(0.843494 0.537138 -0.562094 0.827073 68.7323 20.262)" fill="#FF5454"/>
<ellipse rx="2.40982" ry="2.37899" transform="matrix(0.843494 0.537138 -0.562094 0.827073 90.63 41.4588)" fill="#FF5454"/>
<ellipse rx="2.40982" ry="2.37899" transform="matrix(0.843494 0.537138 -0.562094 0.827073 49.2676 53.2348)" fill="#FF5454"/>
</svg>
