<svg width="40" height="40" viewBox="0 0 40 40" fill="none" xmlns="http://www.w3.org/2000/svg">
<path d="M15.6867 30.2025C15.7878 30.2539 15.9023 30.2803 16.0186 30.279C16.1348 30.2777 16.2486 30.2488 16.3483 30.1951L19.6326 28.4277C19.7298 28.3753 19.8103 28.3013 19.8662 28.2128C19.9221 28.1242 19.9515 28.0242 19.9515 27.9225C19.9515 27.8208 19.9221 27.7208 19.8662 27.6322C19.8103 27.5437 19.7298 27.4696 19.6326 27.4173L16.3483 25.6499C16.2486 25.5962 16.1349 25.5672 16.0186 25.5659C15.9024 25.5646 15.7878 25.5909 15.6867 25.6423C15.5855 25.6937 15.5014 25.7682 15.4428 25.8583C15.3843 25.9483 15.3534 26.0507 15.3534 26.155V29.6899C15.3534 29.7941 15.3843 29.8965 15.4428 29.9866C15.5014 30.0766 15.5855 30.1511 15.6867 30.2025ZM16.6671 27.1955L18.0179 27.9224L16.6671 28.6494V27.1955Z" fill="#1D1D1B"/>
<path d="M38.3431 3.76744H27.3958L24.9435 2.11783C24.8298 2.04135 24.6915 2 24.5494 2C24.4073 2 24.269 2.04135 24.1553 2.11783L21.7031 3.76744H10.7551C10.5809 3.76744 10.4139 3.82951 10.2907 3.94C10.1675 4.05049 10.0983 4.20034 10.0983 4.35659V8.72629C9.62356 8.91187 9.20453 9.19558 8.87546 9.55423C8.54639 9.91288 8.31663 10.3363 8.20495 10.7898C8.09327 11.2434 8.10285 11.7142 8.2329 12.1638C8.36295 12.6134 8.60979 13.029 8.95322 13.3767C8.83862 13.459 8.72923 13.547 8.62554 13.6403C8.25838 13.9677 7.96728 14.3572 7.76908 14.7862C7.57088 15.2152 7.46952 15.6752 7.47086 16.1395V20.8527H4.4485C4.05667 20.8531 3.68102 20.9929 3.40395 21.2414C3.12688 21.4899 2.97103 21.8269 2.97057 22.1783V33.814H1.65686C1.48265 33.814 1.31557 33.876 1.19239 33.9865C1.0692 34.097 1 34.2469 1 34.4031V35.1395C1.00074 35.7253 1.26049 36.2868 1.72227 36.701C2.18406 37.1152 2.81016 37.3482 3.46321 37.3488H26.0273C26.6478 37.3492 27.2453 37.1387 27.6997 36.7597H33.0885C33.2627 36.7597 33.4298 36.6976 33.553 36.5871C33.6762 36.4767 33.7454 36.3268 33.7454 36.1705V34.4031H32.4317V35.5814H28.4413C28.4742 35.436 28.4907 35.2879 28.4905 35.1395V34.4031C28.4905 34.2469 28.4213 34.097 28.2981 33.9865C28.175 33.876 28.0079 33.814 27.8337 33.814H26.6174V22.1783C26.617 21.8269 26.4611 21.4899 26.184 21.2414C25.907 20.9929 25.5313 20.8531 25.1395 20.8527H15.3531V19.6744H32.4314V21.4419H33.7451V19.6744H38.3431C38.5174 19.6744 38.6844 19.6124 38.8076 19.5019C38.9308 19.3914 39 19.2415 39 19.0853V4.35659C39 4.20034 38.9308 4.05049 38.8076 3.94C38.6844 3.82951 38.5174 3.76744 38.3431 3.76744ZM24.5491 3.32558L25.206 3.76744H23.8923L24.5491 3.32558ZM11.412 4.94574H37.6863V16.1395H18.3186L20.1818 15.5129C20.3328 15.4621 20.4577 15.3633 20.5327 15.2352C20.6076 15.1071 20.6275 14.9588 20.5884 14.8184L20.1409 13.213L23.7341 9.45323C23.7903 9.39449 23.833 9.3264 23.8598 9.25286C23.8866 9.17932 23.897 9.10176 23.8904 9.02462C23.8838 8.94748 23.8603 8.87225 23.8213 8.80325C23.7822 8.73425 23.7285 8.67281 23.663 8.62246C23.5975 8.5721 23.5216 8.53381 23.4396 8.50976C23.3576 8.48572 23.2711 8.47639 23.1851 8.48232C23.0991 8.48825 23.0152 8.50932 22.9383 8.54432C22.8614 8.57932 22.7929 8.62756 22.7367 8.68631L19.5202 12.0518C19.3728 12.0032 19.2108 12.0035 19.0637 12.0528L14.2381 13.676C14.1227 13.5697 14.0001 13.4699 13.8709 13.3772C14.2903 12.9525 14.5639 12.4283 14.659 11.8674C14.7541 11.3066 14.6665 10.733 14.4067 10.2158C14.147 9.69852 13.7262 9.25959 13.1949 8.95177C12.6636 8.64394 12.0445 8.48034 11.412 8.48062V4.94574ZM27.1766 35.1395C27.1762 35.4129 27.055 35.675 26.8395 35.8682C26.624 36.0615 26.3318 36.1703 26.0271 36.1705H3.46321C3.15845 36.1703 2.86626 36.0615 2.65075 35.8682C2.43525 35.675 2.31404 35.4129 2.31371 35.1395V34.9922H27.1768L27.1766 35.1395ZM8.76101 28.8725C8.54227 28.7284 8.37867 28.527 8.2927 28.2961C8.20673 28.0652 8.20261 27.8161 8.28091 27.583C8.35921 27.3499 8.51608 27.1442 8.72996 26.9944C8.94385 26.8445 9.20424 26.7577 9.47534 26.746C9.49636 26.745 9.51788 26.7446 9.53939 26.7446C9.81614 26.7445 10.0858 26.8228 10.31 26.9684C10.5342 27.1139 10.7013 27.3193 10.7876 27.5552C10.8739 27.791 10.8749 28.0453 10.7904 28.2817C10.706 28.5181 10.5405 28.7245 10.3174 28.8715C10.2265 28.9313 10.1543 29.0111 10.1078 29.1033C10.0613 29.1954 10.042 29.2967 10.0518 29.3975C10.0615 29.4982 10.1001 29.595 10.1637 29.6786C10.2273 29.7621 10.3137 29.8295 10.4148 29.8744C10.6536 29.9805 10.8657 30.1292 11.0383 30.3114C11.1335 30.4115 11.2634 30.4801 11.4072 30.5063C11.5511 30.5325 11.7005 30.5147 11.8317 30.4558L12.9992 29.932L13.2364 30.5703L11.873 31.1819C11.7639 31.2308 11.6721 31.306 11.608 31.399C11.5438 31.492 11.5098 31.5991 11.5097 31.7085V33.814H7.56857V31.4574C7.56866 31.1283 7.67114 30.8057 7.86449 30.526C8.05783 30.2463 8.33436 30.0205 8.66298 29.874C8.76375 29.8291 8.84998 29.7618 8.91339 29.6784C8.9768 29.595 9.01527 29.4985 9.02512 29.3979C9.03496 29.2974 9.01584 29.1963 8.96959 29.1043C8.92335 29.0122 8.85152 28.9324 8.76101 28.8725ZM14.6626 30.6819L14.0058 28.9145C13.976 28.8344 13.9274 28.761 13.8633 28.6992C13.7991 28.6374 13.7209 28.5888 13.6339 28.5565C13.547 28.5242 13.4533 28.509 13.3593 28.512C13.2652 28.515 13.173 28.5361 13.0888 28.5739L11.7698 29.1657C11.9922 28.8454 12.1256 28.4818 12.1586 28.1056C12.1915 27.7294 12.1232 27.3516 11.9594 27.0041C11.7955 26.6565 11.5409 26.3494 11.2171 26.1085C10.8932 25.8677 10.5095 25.7002 10.0984 25.6202V24.3876H22.6763V31.4574H14.1946L14.3334 31.3951C14.4748 31.3317 14.5859 31.2246 14.6464 31.0936C14.7069 30.9626 14.7126 30.8164 14.6626 30.6819ZM25.3037 22.1783V33.814H12.8234V32.6357H23.3331C23.5073 32.6357 23.6744 32.5736 23.7976 32.4631C23.9208 32.3526 23.99 32.2028 23.99 32.0465V23.7985C23.99 23.6422 23.9208 23.4923 23.7976 23.3819C23.6744 23.2714 23.5073 23.2093 23.3331 23.2093H9.44143C9.26722 23.2093 9.10015 23.2714 8.97697 23.3819C8.85378 23.4923 8.78458 23.6422 8.78458 23.7985V25.6643C8.38905 25.7705 8.02702 25.9589 7.72787 26.2141C7.42871 26.4694 7.20087 26.7843 7.06284 27.1333C6.9248 27.4823 6.88046 27.8556 6.9334 28.2228C6.98635 28.5901 7.1351 28.941 7.36757 29.247C7.31584 29.288 7.26551 29.3304 7.21658 29.3742C6.91067 29.6472 6.66817 29.9718 6.50309 30.3294C6.33801 30.687 6.25364 31.0704 6.25486 31.4574V33.814H4.28429V22.1783C4.28429 22.1392 4.30159 22.1018 4.33238 22.0741C4.36318 22.0465 4.40495 22.031 4.4485 22.031H25.1395C25.183 22.031 25.2248 22.0465 25.2556 22.0741C25.2864 22.1018 25.3037 22.1392 25.3037 22.1783ZM8.78458 20.8527V16.1395C8.78504 15.6852 8.93171 15.2406 9.20698 14.8591C9.48225 14.4777 9.87442 14.1756 10.3364 13.9891C10.4461 13.9451 10.5402 13.8749 10.6086 13.7862C10.6769 13.6975 10.7167 13.5937 10.7238 13.486C10.7308 13.3784 10.7048 13.2711 10.6486 13.1758C10.5924 13.0805 10.5081 13.0009 10.4049 12.9456C10.034 12.7477 9.74584 12.446 9.58464 12.0869C9.42344 11.7279 9.39811 11.3313 9.51256 10.9581C9.627 10.5848 9.87488 10.2556 10.2181 10.021C10.5614 9.78639 10.981 9.65931 11.4126 9.65931C11.8441 9.65931 12.2638 9.78639 12.607 10.021C12.9503 10.2556 13.1982 10.5848 13.3126 10.9581C13.427 11.3313 13.4017 11.7279 13.2405 12.0869C13.0793 12.446 12.7912 12.7477 12.4203 12.9456C12.3171 13.0009 12.2329 13.0805 12.1766 13.1757C12.1204 13.2709 12.0944 13.3782 12.1014 13.4858C12.1084 13.5934 12.1482 13.6971 12.2164 13.7859C12.2846 13.8746 12.3786 13.9448 12.4883 13.9889C12.8942 14.1528 13.2473 14.4061 13.5146 14.7254C13.5998 14.8272 13.7196 14.9015 13.8558 14.9372C13.9921 14.9728 14.1376 14.9679 14.2705 14.9232L18.8362 13.3876L19.1722 14.5937L14.4656 16.177C14.3404 16.2191 14.2325 16.2945 14.1564 16.3931C14.0802 16.4917 14.0394 16.6088 14.0394 16.7287V20.8527H8.78458ZM15.3531 18.4961V17.3178H37.6863V18.4961H15.3531Z" fill="#1D1D1B"/>
<path d="M33.0885 22.6202C32.1791 22.6202 31.2901 22.8621 30.534 23.3152C29.7778 23.7684 29.1885 24.4125 28.8405 25.166C28.4925 25.9196 28.4014 26.7488 28.5788 27.5488C28.7562 28.3488 29.1942 29.0836 29.8372 29.6604C30.4802 30.2371 31.2995 30.6299 32.1915 30.789C33.0834 30.9481 34.0079 30.8665 34.8481 30.5543C35.6882 30.2422 36.4063 29.7136 36.9116 29.0354C37.4168 28.3572 37.6865 27.5599 37.6865 26.7442C37.6851 25.6508 37.2002 24.6026 36.3382 23.8295C35.4762 23.0563 34.3075 22.6214 33.0885 22.6202ZM36.3071 26.1551H35.214C35.151 25.6386 35.0035 25.1333 34.7763 24.6554L34.5042 24.0864C34.962 24.2834 35.3628 24.5726 35.6755 24.9314C35.9882 25.2903 36.2042 25.709 36.3067 26.1551H36.3071ZM33.0885 29.3725L32.6086 28.3689C32.4511 28.0379 32.3428 27.6897 32.2865 27.3334H33.8906C33.8343 27.6896 33.7261 28.0376 33.5686 28.3685L33.0885 29.3725ZM32.2865 26.1551C32.3428 25.7989 32.451 25.4509 32.6083 25.1199L33.0885 24.116L33.5684 25.1195C33.7259 25.4505 33.8342 25.7987 33.8905 26.1551H32.2865ZM31.6731 24.0865L31.4008 24.6559C31.1737 25.1337 31.0263 25.6388 30.9634 26.1551H29.8703C29.9728 25.709 30.1889 25.2902 30.5016 24.9314C30.8143 24.5726 31.2153 24.2834 31.6731 24.0865ZM29.8703 27.3334H30.9634C31.0264 27.8498 31.1738 28.3551 31.401 28.833L31.6731 29.4019C31.2153 29.205 30.8143 28.9158 30.5016 28.557C30.1889 28.1982 29.9728 27.7794 29.8703 27.3334ZM34.5039 29.402L34.7762 28.8325C35.0034 28.3548 35.1509 27.8497 35.214 27.3334H36.3071C36.2045 27.7795 35.9884 28.1983 35.6756 28.5571C35.3628 28.9159 34.9618 29.2051 34.5039 29.402Z" fill="#1D1D1B"/>
<path d="M33.7454 32.0465H32.4316V33.2248H33.7454V32.0465Z" fill="#1D1D1B"/>
</svg>
